# xmcd CD database file generated by Grip 3.0.1
# 
# Track frame offsets:
#       183
#       7920
#       24195
#       47138
#       55015
#       73063
#       89405
#       95588
#       110955
#       130585
#       142078
#       152588
#       166335
# 
# Disc length: 2385 seconds
# 
# Revision: 2
# Processed by: cddbd v1.5PL3 Copyright (c) Steve Scherf et al.
# Submitted via: Grip 3.0.1
# 
DISCID=a8094f0d
DTITLE=Various Artist - VIFAM
DYEAR=1985
DGENRE=Soundtrack
TTITLE0=Uchu Kukan
TTITLE1=Giwaku
TTITLE2=TAO - HELLO, VIFAM
TTITLE3=Ho-Ho-E-Mi
TTITLE4=Tansaku
TTITLE5=Iseijin
TTITLE6=VIFAM no Theme
TTITLE7=Kimi ha Su-Te-Ki
TTITLE8=Sentou
TTITLE9=Chinkonka
TTITLE10=Kibou
TTITLE11=TAO - NEVER GIVE UP
TTITLE12=Ginga Hyouryu
EXTD=
EXTT0=
EXTT1=
EXTT2=
EXTT3=
EXTT4=
EXTT5=
EXTT6=
EXTT7=
EXTT8=
EXTT9=
EXTT10=
EXTT11=
EXTT12=
PLAYORDER=
